# xmcd
#
# Track frame offsets:
#	150
#	14854
#	33109
#	44326
#	63393
#	78935
#	96517
#	108951
#	120358
#	132568
#	146257
#
# Disc length: 2184 seconds
#
# Revision: 0
# Processed by: cddbd v1.4PL0 Copyright (c) Steve Scherf et al.
# Submitted via: EasyCDDAExtractor 4.5.0.2
#
DISCID=9108860b
DTITLE=Don Cox - All Over Town
DYEAR=1900
DGENRE=Country
TTITLE0=All Over Town
TTITLE1=In My Father's  Eyes
TTITLE2=Too Much Too Little
TTITLE3=Your Part
TTITLE4=A Month Of Somedays
TTITLE5=Today's The Day
TTITLE6=Honey Don't Pay The Ransom
TTITLE7=Chase The Moon
TTITLE8=The Jukebox Has A Forty-Five
TTITLE9=Suicide Mission
TTITLE10=Along Way Past Goodbye
EXTD=46
EXTT0=
EXTT1=
EXTT2=
EXTT3=
EXTT4=
EXTT5=
EXTT6=
EXTT7=
EXTT8=
EXTT9=
EXTT10=
PLAYORDER=
